<?xml version="1.0" encoding="UTF-8"?>
<svg xmlns="http://www.w3.org/2000/svg" width="1024" height="559" viewBox="0 0 1024 559">
<title>Barriga / casco inferior</title>
<g id="barriga-casco-inferior" data-parte="Barriga / casco inferior"><path d="M 333,357 L 358,362 L 432,363 L 475,357 L 507,349 L 544,357 L 578,352 L 610,336 L 628,349 L 641,335 L 668,331 L 695,333 L 715,328 L 734,323 L 754,306 L 744,323 L 734,339 L 700,361 L 674,374 L 631,385 L 602,395 L 570,401 L 545,400 L 474,404 L 434,401 L 393,397 L 333,382 Z" fill="#e9dfbc" /><path d="M 333,382 L 393,397 M 474,404 L 545,400 M 631,385 L 674,374 L 700,361" fill="none" stroke="#2d372e" stroke-width="3.2" stroke-linejoin="miter" stroke-miterlimit="3"/><path d="M 361,362 L 370,380 L 393,397 M 434,363 L 446,387 L 474,404 M 570,356 L 586,377 L 602,395 M 695,333 L 682,353 L 663,370" fill="none" stroke="#2d372e" stroke-width="2.6" stroke-linejoin="miter" stroke-miterlimit="3"/><path d="M 333,357 L 358,362 L 432,363 L 475,357 L 507,349" fill="none" stroke="#2d372e" stroke-width="3.2" stroke-dasharray="8 6" stroke-linecap="butt" stroke-linejoin="miter"/><path d="M 507,349 L 524,345 L 524,361 L 529,374 L 547,380 M 628,349 L 641,335 L 668,331 L 695,333 L 715,328 L 734,323 L 754,306" fill="none" stroke="#2d372e" stroke-width="3.2" stroke-dasharray="8 6" stroke-linecap="butt" stroke-linejoin="miter"/><path d="M 547,380 L 545,400 M 628,349 L 631,370 L 631,385" fill="none" stroke="#2d372e" stroke-width="3.2" stroke-dasharray="8 6" stroke-linecap="butt" stroke-linejoin="miter"/><path d="M 700,361 L 734,339 L 744,323 L 754,306" fill="none" stroke="#2d372e" stroke-width="3.2" stroke-dasharray="8 6" stroke-linecap="butt" stroke-linejoin="miter"/><path d="M 333,357 L 333,382" fill="none" stroke="#2d372e" stroke-width="3.2" stroke-dasharray="8 6" stroke-linecap="butt" stroke-linejoin="miter"/><path d="M 393,397 L 434,401 L 474,404" fill="none" stroke="#2d372e" stroke-width="3.2" stroke-dasharray="8 6" stroke-linecap="butt" stroke-linejoin="miter"/></g>
</svg>
