<?xml version="1.0" encoding="UTF-8"?>
<svg xmlns="http://www.w3.org/2000/svg" width="1697" height="927" viewBox="0 0 1697 927"><title>Urso — Monte os Bichos — 6 grupos</title><g id="patas-traseiras"><path d="M 600 640 Q 674 657 760 638 Q 758 691 729 740 Q 700 779 717 785 Q 767 794 780 819 Q 791 833 767 832 L 630 832 Q 589 833 591 797 Q 598 722 581 674 L 600 640 Z" fill="#8e7157" fill-rule="evenodd"/><path d="M 760 638 Q 758 691 729 740 Q 700 779 717 785 Q 767 794 780 819 Q 791 833 767 832 L 630 832 Q 589 833 591 797 Q 598 722 581 674 L 600 640" fill="none" stroke="#392519" stroke-width="2.8" stroke-linejoin="round" stroke-linecap="butt"/><path d="M 600 640 Q 674 657 760 638" fill="none" stroke="#392519" stroke-width="2.8" stroke-linejoin="round" stroke-linecap="butt" stroke-dasharray="10 7"/><path d="M 420 302 C 500 287 593 349 621 427 C 651 505 629 582 600 640 L 581 674 Q 554 718 493 768 Q 477 786 505 794 Q 535 803 546 825 Q 557 843 523 843 L 422 843 Q 394 844 374 827 Q 337 799 352 765 C 370 720 413 675 399 602 C 397 558 383 510 397 441 Q 379 465 371 432 C 363 400 385 349 420 302 Z" fill="#aa8868" fill-rule="evenodd"/><path d="M 420 302 C 385 349 363 400 371 432 Q 379 465 397 441 C 383 510 397 558 399 602 C 413 675 370 720 352 765 Q 337 799 374 827 Q 394 844 422 843 L 523 843 Q 557 843 546 825 Q 535 803 505 794 Q 477 786 493 768 Q 554 718 581 674 L 600 640" fill="none" stroke="#392519" stroke-width="2.8" stroke-linejoin="round" stroke-linecap="butt"/><path d="M 420 302 C 500 287 593 349 621 427 C 651 505 629 582 600 640" fill="none" stroke="#392519" stroke-width="2.8" stroke-linejoin="round" stroke-linecap="butt" stroke-dasharray="10 7"/><path d="M413 377 Q402 409 397 441 M476 811 Q497 815 504 837 M505 807 Q529 820 533 837 M728 801 Q752 802 752 825" fill="none" stroke="#392519" stroke-width="2.4" stroke-linejoin="round" stroke-linecap="butt"/><path d="M487 824 Q483 810 497 821 Q507 828 507 844 Q496 832 487 824 Z" fill="#ead4b2" stroke="#392519" stroke-width="2" stroke-linejoin="round" stroke-linecap="butt"/><path d="M513 821 Q509 807 523 818 Q534 825 534 841 Q522 829 513 821 Z" fill="#ead4b2" stroke="#392519" stroke-width="2" stroke-linejoin="round" stroke-linecap="butt"/><path d="M530 817 Q526 803 540 814 Q549 821 549 838 Q539 825 530 817 Z" fill="#ead4b2" stroke="#392519" stroke-width="2" stroke-linejoin="round" stroke-linecap="butt"/><path d="M766 812 Q762 798 776 809 Q785 816 785 829 Q775 820 766 812 Z" fill="#ead4b2" stroke="#392519" stroke-width="2" stroke-linejoin="round" stroke-linecap="butt"/></g><g id="patas-dianteiras"><path d="M 1147 479 Q 1100 564 1034 590 Q 1004 652 1001 713 Q 1011 734 1033 777 Q 1043 781 1053 797 Q 1068 823 1089 831 L 1210 831 Q 1235 832 1224 816 Q 1207 777 1149 777 Q 1124 765 1118 690 Q 1107 621 1121 588 Q 1142 539 1147 479 Z" fill="#8e7157" fill-rule="evenodd"/><path d="M 1147 479 Q 1142 539 1121 588 Q 1107 621 1118 690 Q 1124 765 1149 777 Q 1207 777 1224 816 Q 1235 832 1210 831 L 1089 831 Q 1068 823 1053 797 Q 1043 781 1033 777 Q 1011 734 1001 713 Q 1004 652 1034 590" fill="none" stroke="#392519" stroke-width="2.8" stroke-linejoin="round" stroke-linecap="butt"/><path d="M 1034 590 Q 1100 564 1147 479" fill="none" stroke="#392519" stroke-width="2.8" stroke-linejoin="round" stroke-linecap="butt" stroke-dasharray="10 7"/><path d="M 865 532 C 924 482 1006 464 1056 538 Q 1045 566 1034 590 C 1011 629 1004 678 1001 713 Q 990 780 1010 789 Q 1071 796 1085 824 Q 1100 843 1070 843 L 959 843 Q 931 845 921 824 Q 908 790 894 781 Q 875 727 863 646 L 855 657 L 851 623 L 846 632 L 848 610 Q 861 568 865 532 Z" fill="#aa8868" fill-rule="evenodd"/><path d="M 1034 590 C 1011 629 1004 678 1001 713 Q 990 780 1010 789 Q 1071 796 1085 824 Q 1100 843 1070 843 L 959 843 Q 931 845 921 824 Q 908 790 894 781 Q 875 727 863 646 L 855 657 L 851 623 L 846 632 L 848 610 Q 861 568 865 532" fill="none" stroke="#392519" stroke-width="2.8" stroke-linejoin="round" stroke-linecap="butt"/><path d="M 865 532 C 924 482 1006 464 1056 538" fill="none" stroke="#392519" stroke-width="2.8" stroke-linejoin="round" stroke-linecap="butt" stroke-dasharray="10 7"/><path d="M 1056 538 Q 1045 566 1034 590" fill="none" stroke="#392519" stroke-width="2.8" stroke-linejoin="round" stroke-linecap="butt" stroke-dasharray="10 7"/><path d="M1016 809 Q1043 813 1050 837 M1164 796 Q1192 797 1200 825" fill="none" stroke="#392519" stroke-width="2.4" stroke-linejoin="round" stroke-linecap="butt"/><path d="M1034 824 Q1030 810 1044 821 Q1058 828 1058 845 Q1043 832 1034 824 Z" fill="#ead4b2" stroke="#392519" stroke-width="2" stroke-linejoin="round" stroke-linecap="butt"/><path d="M1056 817 Q1052 803 1066 814 Q1081 821 1081 840 Q1065 825 1056 817 Z" fill="#ead4b2" stroke="#392519" stroke-width="2" stroke-linejoin="round" stroke-linecap="butt"/><path d="M1070 817 Q1066 803 1080 814 Q1092 821 1092 836 Q1079 825 1070 817 Z" fill="#ead4b2" stroke="#392519" stroke-width="2" stroke-linejoin="round" stroke-linecap="butt"/><path d="M1184 811 Q1180 797 1194 808 Q1210 815 1210 832 Q1193 819 1184 811 Z" fill="#ead4b2" stroke="#392519" stroke-width="2" stroke-linejoin="round" stroke-linecap="butt"/><path d="M1205 807 Q1201 793 1215 804 Q1228 811 1228 828 Q1214 815 1205 807 Z" fill="#ead4b2" stroke="#392519" stroke-width="2" stroke-linejoin="round" stroke-linecap="butt"/></g><g id="tronco-barriga"><path d="M 420 302 C 526 158 642 144 754 175 C 822 190 850 193 890 170 C 938 137 961 141 1009 160 Q 1032 169 1060 158 L 1080 152 C 1045 220 1040 297 1060 343 C 1080 386 1127 440 1086 513 Q 1118 492 1147 479 Q 1100 564 1034 590 Q 1045 566 1056 538 C 1006 464 924 482 865 532 Q 861 568 848 610 Q 806 626 760 638 Q 674 657 600 640 C 629 582 651 505 621 427 C 593 349 500 287 420 302 Z" fill="#aa8868" fill-rule="evenodd"/><path d="M615 604 C697 612 792 586 859 563 L848 610 Q806 626 760 638 Q674 657 600 640 Z" fill="#ead4b2"/><path d="M 1056 538 Q 1045 566 1034 590 Q 1100 564 1147 479 Q 1118 492 1086 513 Q 1070 528 1056 538 Z" fill="#ead4b2" fill-rule="evenodd"/><path d="M 420 302 C 526 158 642 144 754 175 C 822 190 850 193 890 170 C 938 137 961 141 1009 160 Q 1032 169 1060 158 L 1080 152" fill="none" stroke="#392519" stroke-width="2.8" stroke-linejoin="round" stroke-linecap="butt"/><path d="M 760 638 Q 806 626 848 610" fill="none" stroke="#392519" stroke-width="2.8" stroke-linejoin="round" stroke-linecap="butt"/><path d="M 1080 152 C 1045 220 1040 297 1060 343 C 1080 386 1127 440 1086 513" fill="none" stroke="#392519" stroke-width="2.8" stroke-linejoin="round" stroke-linecap="butt" stroke-dasharray="10 7"/><path d="M 1086 513 Q 1118 492 1147 479" fill="none" stroke="#392519" stroke-width="2.8" stroke-linejoin="round" stroke-linecap="butt" stroke-dasharray="10 7"/><path d="M 1034 590 Q 1100 564 1147 479" fill="none" stroke="#392519" stroke-width="2.8" stroke-linejoin="round" stroke-linecap="butt" stroke-dasharray="10 7"/><path d="M 1056 538 Q 1045 566 1034 590" fill="none" stroke="#392519" stroke-width="2.8" stroke-linejoin="round" stroke-linecap="butt" stroke-dasharray="10 7"/><path d="M 865 532 C 924 482 1006 464 1056 538" fill="none" stroke="#392519" stroke-width="2.8" stroke-linejoin="round" stroke-linecap="butt" stroke-dasharray="10 7"/><path d="M 848 610 Q 861 568 865 532" fill="none" stroke="#392519" stroke-width="2.8" stroke-linejoin="round" stroke-linecap="butt" stroke-dasharray="10 7"/><path d="M 600 640 Q 674 657 760 638" fill="none" stroke="#392519" stroke-width="2.8" stroke-linejoin="round" stroke-linecap="butt" stroke-dasharray="10 7"/><path d="M 420 302 C 500 287 593 349 621 427 C 651 505 629 582 600 640" fill="none" stroke="#392519" stroke-width="2.8" stroke-linejoin="round" stroke-linecap="butt" stroke-dasharray="10 7"/><path d="M860 467 Q869 501 865 532" fill="none" stroke="#392519" stroke-width="2.4" stroke-linejoin="round" stroke-linecap="butt"/></g><g id="cabeca"><path d="M 1080 152 Q 1101 143 1120 143 C 1118 181 1129 206 1147 218 Q 1180 176 1210 164 Q 1208 141 1200 127 Q 1227 135 1256 151 C 1310 182 1331 214 1338 255 Q 1311 252 1310 286 Q 1313 311 1294 334 Q 1270 365 1307 391 Q 1280 417 1239 418 Q 1201 417 1173 450 Q 1160 466 1147 479 Q 1118 492 1086 513 C 1127 440 1080 386 1060 343 C 1040 297 1045 220 1080 152 Z" fill="#aa8868" fill-rule="evenodd"/><path d="M 1080 152 Q 1101 143 1120 143" fill="none" stroke="#392519" stroke-width="2.8" stroke-linejoin="round" stroke-linecap="butt"/><path d="M 1256 151 C 1310 182 1331 214 1338 255" fill="none" stroke="#392519" stroke-width="2.8" stroke-linejoin="round" stroke-linecap="butt"/><path d="M 1307 391 Q 1280 417 1239 418 Q 1201 417 1173 450 Q 1160 466 1147 479" fill="none" stroke="#392519" stroke-width="2.8" stroke-linejoin="round" stroke-linecap="butt"/><path d="M 1120 143 C 1118 181 1129 206 1147 218 Q 1180 176 1210 164 Q 1208 141 1200 127" fill="none" stroke="#392519" stroke-width="2.8" stroke-linejoin="round" stroke-linecap="butt" stroke-dasharray="10 7"/><path d="M 1200 127 Q 1227 135 1256 151" fill="none" stroke="#392519" stroke-width="2.8" stroke-linejoin="round" stroke-linecap="butt" stroke-dasharray="10 7"/><path d="M 1338 255 Q 1311 252 1310 286 Q 1313 311 1294 334 Q 1270 365 1307 391" fill="none" stroke="#392519" stroke-width="2.8" stroke-linejoin="round" stroke-linecap="butt" stroke-dasharray="10 7"/><path d="M 1086 513 Q 1118 492 1147 479" fill="none" stroke="#392519" stroke-width="2.8" stroke-linejoin="round" stroke-linecap="butt" stroke-dasharray="10 7"/><path d="M 1080 152 C 1045 220 1040 297 1060 343 C 1080 386 1127 440 1086 513" fill="none" stroke="#392519" stroke-width="2.8" stroke-linejoin="round" stroke-linecap="butt" stroke-dasharray="10 7"/><path d="M1262 258 Q1278 226 1299 234 Q1320 247 1304 280 Q1289 301 1268 280 Z" fill="#997b5e"/><path d="M1278 263 Q1290 247 1303 251 Q1313 272 1297 273 Q1286 272 1278 263 Z" fill="#faf7ef" stroke="#392519" stroke-width="2" stroke-linejoin="round" stroke-linecap="butt"/><path d="M1292 256 Q1306 245 1307 260 Q1308 275 1297 270 Z" fill="#392b20"/><ellipse cx="1301" cy="257" rx="3" ry="4" fill="#fff"/><path d="M1278 253 Q1290 247 1303 251 M1144 280 Q1135 307 1139 327 L1146 319 Q1147 345 1156 361 L1159 349 Q1169 376 1193 392" fill="none" stroke="#392519" stroke-width="2.4" stroke-linejoin="round" stroke-linecap="butt"/></g><g id="orelhas"><path d="M 1200 127 Q 1228 97 1245 114 Q 1258 127 1256 151 Q 1227 135 1200 127 Z" fill="#8e7157" fill-rule="evenodd"/><path d="M 1200 127 Q 1228 97 1245 114 Q 1258 127 1256 151" fill="none" stroke="#392519" stroke-width="2.8" stroke-linejoin="round" stroke-linecap="butt"/><path d="M 1200 127 Q 1227 135 1256 151" fill="none" stroke="#392519" stroke-width="2.8" stroke-linejoin="round" stroke-linecap="butt" stroke-dasharray="10 7"/><path d="M 1120 143 C 1122 109 1155 93 1178 110 Q 1192 115 1200 127 Q 1208 141 1210 164 Q 1180 176 1147 218 C 1129 206 1118 181 1120 143 Z" fill="#aa8868" fill-rule="evenodd"/><path d="M 1120 143 C 1122 109 1155 93 1178 110 Q 1192 115 1200 127" fill="none" stroke="#392519" stroke-width="2.8" stroke-linejoin="round" stroke-linecap="butt"/><path d="M 1120 143 C 1118 181 1129 206 1147 218 Q 1180 176 1210 164 Q 1208 141 1200 127" fill="none" stroke="#392519" stroke-width="2.8" stroke-linejoin="round" stroke-linecap="butt" stroke-dasharray="10 7"/><path d="M1156 191 C1140 171 1142 131 1160 127 C1178 120 1190 144 1197 169 Q1173 177 1156 191 Z" fill="#8e7157"/><path d="M1156 191 C1140 171 1142 131 1160 127 C1178 120 1190 144 1197 169" fill="none" stroke="#392519" stroke-width="2.4" stroke-linejoin="round" stroke-linecap="butt"/></g><g id="focinho-boca"><path d="M 1338 255 Q 1372 280 1405 300 Q 1435 309 1416 335 Q 1407 344 1404 355 Q 1400 370 1375 373 Q 1360 397 1320 390 L 1307 391 Q 1270 365 1294 334 Q 1313 311 1310 286 Q 1311 252 1338 255 Z" fill="#ead4b2" fill-rule="evenodd"/><path d="M 1338 255 Q 1372 280 1405 300 Q 1435 309 1416 335 Q 1407 344 1404 355 Q 1400 370 1375 373 Q 1360 397 1320 390 L 1307 391" fill="none" stroke="#392519" stroke-width="2.8" stroke-linejoin="round" stroke-linecap="butt"/><path d="M 1338 255 Q 1311 252 1310 286 Q 1313 311 1294 334 Q 1270 365 1307 391" fill="none" stroke="#392519" stroke-width="2.8" stroke-linejoin="round" stroke-linecap="butt" stroke-dasharray="10 7"/><path d="M1405 300 Q1381 302 1388 328 Q1392 342 1407 343 Q1436 311 1405 300 Z" fill="#614933" stroke="#392519" stroke-width="2.3" stroke-linejoin="round" stroke-linecap="butt"/><path d="M1308 360 Q1312 358 1320 362 Q1348 377 1375 373" fill="none" stroke="#392519" stroke-width="2.4" stroke-linejoin="round" stroke-linecap="butt"/></g></svg>