<?xml version="1.0" encoding="UTF-8"?>
<svg xmlns="http://www.w3.org/2000/svg" width="1024" height="559" viewBox="0 0 1024 559">
<title>Perna traseira esquerda</title>
<g id="perna-traseira-esquerda" data-parte="Perna traseira esquerda"><path d="M 346,304 L 317,287 L 287,275 L 257,268 L 238,269 L 220,279 L 208,295 L 206,314 L 215,338 L 235,366 L 264,396 L 290,417 L 310,433 L 216,456 L 207,452 L 196,453 L 189,460 L 188,471 L 194,480 L 204,482 L 214,479 L 258,470 L 228,480 L 216,479 L 206,484 L 204,495 L 211,505 L 222,507 L 234,501 L 276,490 L 253,511 L 244,514 L 241,524 L 249,535 L 261,536 L 270,528 L 272,522 L 373,479.111 L 377,470 L 357,436 L 345,405 L 336,368 L 335,343 L 346,304 Z" fill="#84976a" /><path d="M 265,328 L 338,389 L 342,409 L 317,393 L 290,367 L 272,345 Z" fill="#ced8bf" /><path d="M 346,304 L 317,287 L 287,275 L 257,268 L 238,269 L 220,279 L 208,295 L 206,314 L 215,338 L 235,366 L 264,396 L 290,417 L 310,433 L 216,456 L 207,452 L 196,453 L 189,460 L 188,471 L 194,480 L 204,482 L 214,479 L 258,470 L 228,480 L 216,479 L 206,484 L 204,495 L 211,505 L 222,507 L 234,501 L 276,490 L 253,511 L 244,514 L 241,524 L 249,535 L 261,536 L 270,528 L 272,522 L 373,479.111" fill="none" stroke="#3e3a15" stroke-width="5.2" stroke-linejoin="miter" stroke-miterlimit="3"/><path d="M 265,327 L 338,389" fill="none" stroke="#3e3a15" stroke-width="4.6" stroke-linejoin="miter" stroke-miterlimit="3"/><path d="M 310,433 L 335,444" fill="none" stroke="#3e3a15" stroke-width="4.6" stroke-linejoin="miter" stroke-miterlimit="3"/><path d="M 214,460 L 290,459 L 228,480" fill="none" stroke="#3e3a15" stroke-width="4.6" stroke-linejoin="miter" stroke-miterlimit="3"/><path d="M 234,486 L 310,477 L 253,511" fill="none" stroke="#3e3a15" stroke-width="4.6" stroke-linejoin="miter" stroke-miterlimit="3"/><path d="M 252,515 L 283,495" fill="none" stroke="#3e3a15" stroke-width="4.6" stroke-linejoin="miter" stroke-miterlimit="3"/><path d="M 346,304 L 335,343 L 336,368 L 345,405 L 357,436 L 377,470 L 373,479.111" fill="none" stroke="#3e3a15" stroke-width="3.8" stroke-dasharray="9 6" stroke-linecap="butt" stroke-linejoin="miter"/></g>
</svg>
